<?xml version="1.0" encoding="UTF-8" standalone="no"?>
<!-- Generator: Adobe Illustrator 26.3.1, SVG Export Plug-In . SVG Version: 6.00 Build 0)  -->

<svg
   version="1.1"
   id="Ebene_1"
   x="0px"
   y="0px"
   viewBox="0 0 442.5 111.1"
   style="enable-background:new 0 0 442.5 111.1;"
   xml:space="preserve"
   sodipodi:docname="BML_Logo_srgb_dark.svg"
   inkscape:version="1.2.2 (b0a84865, 2022-12-01)"
   xmlns:inkscape="http://www.inkscape.org/namespaces/inkscape"
   xmlns:sodipodi="http://sodipodi.sourceforge.net/DTD/sodipodi-0.dtd"
   xmlns="http://www.w3.org/2000/svg"
   xmlns:svg="http://www.w3.org/2000/svg"><defs
   id="defs19" /><sodipodi:namedview
   id="namedview17"
   pagecolor="#ffffff"
   bordercolor="#000000"
   borderopacity="0.25"
   inkscape:showpageshadow="2"
   inkscape:pageopacity="0.0"
   inkscape:pagecheckerboard="true"
   inkscape:deskcolor="#d1d1d1"
   showgrid="false"
   inkscape:zoom="36.446253"
   inkscape:cx="34.228484"
   inkscape:cy="22.828135"
   inkscape:window-width="1710"
   inkscape:window-height="1070"
   inkscape:window-x="0"
   inkscape:window-y="42"
   inkscape:window-maximized="0"
   inkscape:current-layer="Ebene_1" />
<style
   type="text/css"
   id="style2">
	.st0{fill:#E6320F;}
</style>
<g
   id="g10"
   style="fill:#ffffff">
	<path
   d="M416.9,84.2h2.4V91c0,1.8,1,3.2,3.1,3.2c1.1,0,2.2-0.6,2.2-0.6l-0.5-1.1c0,0-0.8,0.5-1.6,0.5c-1.5,0-1.9-1-1.9-2.3v-6.6   h3.7V83h-3.7v-3.5h-1.2V83h-2.4V84.2z M407.6,84.2h2.4V94h1.2v-9.8h2.9V83h-2.9v-4c0-1.3,0.5-2.3,1.9-2.3c0.7,0,1.4,0.4,1.4,0.4   l0.5-1.1c-0.9-0.5-1.4-0.5-2.1-0.5c-1.5,0-3,1.1-3,3.2V83h-2.4V84.2z M398.9,93.1c-1.4,0-3-0.7-3-2.5c0-1.7,1.8-2.5,3.2-2.5   c2.2,0,3.5,0.9,3.5,0.9v1.8C402.6,90.8,401.3,93.1,398.9,93.1 M399.4,82.8c-2.3,0-4.1,1.2-4.1,1.2l0.6,1.1c0,0,1.6-1,3.6-1   c1.2,0,3.2,0.5,3.2,3.1v0.8c0,0-1.4-1-3.6-1c-2.1,0-4.3,1.3-4.3,3.7c0,2.4,2.1,3.7,4,3.7c2.7,0,4.1-2.2,4.1-2.2V94h1.1v-7.2   C403.9,84.6,402.4,82.8,399.4,82.8 M382.6,84.8v-9h-1.2V94h1.2v-7.6c0,0,1-2.4,3.4-2.4c1.8,0,3.1,1,3.1,3.2V94h1.2v-7   c0-3-2.1-4.2-4.1-4.2C383.7,82.8,382.6,84.8,382.6,84.8 M372.7,93.1c-2.6,0-4.3-2.1-4.3-4.5c0-2.4,1.7-4.5,4.3-4.5   c2.3,0,3.5,1.6,3.5,1.6l0.9-0.8c0,0-1.5-2.1-4.4-2.1c-3.3,0-5.6,2.6-5.6,5.8s2.4,5.8,5.6,5.8c3,0,4.5-2.2,4.5-2.2l-0.9-0.8   C376.4,91.2,375.2,93.1,372.7,93.1 M355,91.9c0,0,1.4,2.3,4.7,2.3c2.1,0,4.2-1.1,4.2-3.1c0-2-1.6-2.7-3.7-3.1   c-1.8-0.4-3.3-0.8-3.3-2.1c0-1.1,1.1-1.9,2.6-1.9c2,0,3.1,1.2,3.1,1.2l0.8-0.9c0,0-1.3-1.5-3.9-1.5c-2.4,0-3.9,1.5-3.9,3.1   c0,1.8,1.5,2.7,3.9,3.3c1.7,0.4,3,0.8,3,2c0,1.4-1.7,1.9-2.9,1.9c-2.6,0-3.7-1.9-3.7-1.9L355,91.9z M344.3,84.2h2.4V91   c0,1.8,1,3.2,3.1,3.2c1.1,0,2.2-0.6,2.2-0.6l-0.5-1.1c0,0-0.8,0.5-1.6,0.5c-1.5,0-1.9-1-1.9-2.3v-6.6h3.7V83h-3.7v-3.5h-1.2V83   h-2.4V84.2z M340.4,82.8c-2.3,0-3.2,2.1-3.2,2.1V83H336V94h1.2v-7.9c0,0,0.9-2.1,2.8-2.1c1,0,1.5,0.3,1.5,0.3l0.5-1.2   C342.1,83,341.4,82.8,340.4,82.8 M329.2,79.5c0,0.5,0.4,1,1,1c0.5,0,1-0.4,1-1s-0.4-1-1-1C329.7,78.5,329.2,79,329.2,79.5    M329.6,94h1.2V83h-1.2V94z M308.5,83l4.9,11.4l3.8-9.1l3.8,9.1l4.9-11.4h-1.3l-3.5,8.6l-3.5-8.6h-0.7l-3.5,8.6l-3.6-8.6H308.5z    M305,82.8c-2.3,0-3.2,2.1-3.2,2.1V83h-1.1V94h1.2v-7.9c0,0,0.9-2.1,2.8-2.1c1,0,1.5,0.3,1.5,0.3l0.5-1.2   C306.7,83,306,82.8,305,82.8 M287.3,87.9c0-1.2,1.1-3.9,4.1-3.9c2.9,0,4,2.6,4,3.9H287.3z M291.4,82.8c-3.3,0-5.4,2.7-5.4,5.8   c0,3.1,2.4,5.8,5.6,5.8c1.8,0,3.5-1,4.6-2.2l-0.8-0.9c-0.7,0.9-2.1,1.9-3.7,1.9c-2.9,0-4.3-2.4-4.4-4h9.4c0-0.3,0-0.3,0-0.5   C296.7,85.2,294.3,82.8,291.4,82.8 M273.9,91.9c0,0,1.4,2.3,4.7,2.3c2.1,0,4.2-1.1,4.2-3.1c0-2-1.6-2.7-3.7-3.1   c-1.8-0.4-3.3-0.8-3.3-2.1c0-1.1,1.1-1.9,2.6-1.9c2,0,3.1,1.2,3.1,1.2l0.8-0.9c0,0-1.3-1.5-3.9-1.5c-2.4,0-3.9,1.5-3.9,3.1   c0,1.8,1.5,2.7,3.9,3.3c1.7,0.4,3,0.8,3,2c0,1.4-1.7,1.9-2.9,1.9c-2.6,0-3.7-1.9-3.7-1.9L273.9,91.9z M261.8,91.9   c0,0,1.4,2.3,4.7,2.3c2.1,0,4.2-1.1,4.2-3.1c0-2-1.6-2.7-3.7-3.1c-1.8-0.4-3.3-0.8-3.3-2.1c0-1.1,1.1-1.9,2.6-1.9   c2,0,3.1,1.2,3.1,1.2l0.8-0.9c0,0-1.3-1.5-3.9-1.5c-2.4,0-3.9,1.5-3.9,3.1c0,1.8,1.5,2.7,3.9,3.3c1.7,0.4,3,0.8,3,2   c0,1.4-1.7,1.9-2.9,1.9c-2.6,0-3.7-1.9-3.7-1.9L261.8,91.9z M252.7,93.1c-1.4,0-3-0.7-3-2.5c0-1.7,1.8-2.5,3.2-2.5   c2.2,0,3.5,0.9,3.5,0.9v1.8C256.4,90.8,255.1,93.1,252.7,93.1 M253.2,82.8c-2.3,0-4.1,1.2-4.1,1.2l0.6,1.1c0,0,1.6-1,3.6-1   c1.2,0,3.2,0.5,3.2,3.1v0.8c0,0-1.4-1-3.6-1c-2.1,0-4.3,1.3-4.3,3.7c0,2.4,2.1,3.7,4,3.7c2.7,0,4.1-2.2,4.1-2.2V94h1.1v-7.2   C257.7,84.6,256.2,82.8,253.2,82.8 M246.5,77.2h-1.3l-4.8,13.7L236,77.2h-1.3l-4.3,13.7l-4.9-13.7h-1.3l6.2,17.3l5-15.2l5,15.2   L246.5,77.2z M211.4,90.5c0,0-1.2,2.5-3.9,2.5c-2.4,0-4.2-2-4.2-4.5s1.7-4.5,4.2-4.5c2.8,0,3.9,2.5,3.9,2.5V90.5z M212.7,94V75.8   h-1.2v9c-0.3-0.4-1.6-2.1-4-2.1c-3,0-5.4,2.4-5.4,5.8c0,3.4,2.4,5.8,5.4,5.8c2.8,0,4.1-2.3,4.1-2.3v2H212.7z M193.9,82.8   c-2.7,0-3.7,2.3-3.7,2.3v-2h-1.1V94h1.2v-7.6c0,0,1-2.4,3.4-2.4c1.8,0,3.1,1,3.1,3.2V94h1.2v-7C198,84,196,82.8,193.9,82.8    M179.3,94.3c2.7,0,3.7-2.2,3.7-2.2V94h1.1V83h-1.2v7.6c0,0-1,2.4-3.4,2.4c-1.8,0-3.1-1-3.1-3.2V83h-1.2v7   C175.2,93,177.2,94.3,179.3,94.3 M158.3,82.8c-2.7,0-3.7,2.3-3.7,2.3v-2h-1.1V94h1.2v-7.6c0,0,1-2.4,3.4-2.4c1.8,0,3.1,1,3.1,3.2   V94h1.2v-7C162.5,84,160.4,82.8,158.3,82.8 M140.1,87.9c0-1.2,1.1-3.9,4.1-3.9c2.9,0,4,2.6,4,3.9H140.1z M144.2,82.8   c-3.3,0-5.4,2.7-5.4,5.8c0,3.1,2.4,5.8,5.6,5.8c1.8,0,3.5-1,4.6-2.2l-0.8-0.9c-0.7,0.9-2.1,1.9-3.7,1.9c-2.9,0-4.3-2.4-4.4-4h9.4   c0-0.3,0-0.3,0-0.5C149.5,85.2,147.1,82.8,144.2,82.8 M130.7,82.8c-2.7,0-3.7,2.3-3.7,2.3v-2h-1.1V94h1.2v-7.6c0,0,1-2.4,3.4-2.4   c1.8,0,3.1,1,3.1,3.2V94h1.2v-7C134.8,84,132.7,82.8,130.7,82.8 M116.3,93.1c-2.7,0-4.3-2.1-4.3-4.5s1.5-4.5,4.3-4.5   s4.3,2.1,4.3,4.5S119,93.1,116.3,93.1 M116.3,82.8c-3.3,0-5.6,2.6-5.6,5.8s2.3,5.8,5.6,5.8s5.6-2.6,5.6-5.8S119.5,82.8,116.3,82.8    M104.8,79.5c0,0.5,0.4,1,1,1s1-0.4,1-1s-0.4-1-1-1S104.8,79,104.8,79.5 M105.2,94h1.2V83h-1.2V94z M98.7,90.5c0,0-1.1,2.5-4,2.5   c-2.4,0-4.1-2-4.1-4.5s1.7-4.5,4.1-4.5c2.8,0,4,2.5,4,2.5V90.5z M98.8,83v2c0,0-1.2-2.3-4.1-2.3c-3,0-5.4,2.4-5.4,5.8   c0,3.4,2.4,5.8,5.4,5.8c2.4,0,3.6-1.6,4-2.1v2.1c0,2.4-1.3,4.3-4.1,4.3c-2.8,0-4.2-1.9-4.2-1.9l-0.8,0.9c0,0,1.8,2.2,5,2.2   c3.2,0,5.4-2.1,5.4-5.5V83H98.8z M76.8,87.9c0-1.2,1.1-3.9,4.1-3.9c2.9,0,4,2.6,4,3.9H76.8z M80.9,82.8c-3.3,0-5.4,2.7-5.4,5.8   c0,3.1,2.4,5.8,5.6,5.8c1.8,0,3.5-1,4.6-2.2l-0.8-0.9c-0.7,0.9-2.1,1.9-3.7,1.9c-2.9,0-4.3-2.4-4.4-4h9.4c0-0.3,0-0.3,0-0.5   C86.3,85.2,83.9,82.8,80.9,82.8 M62.5,94h1.2v-7.3h2.5L71,94h1.5l-4.8-7.4c1.2-0.1,4.3-1.1,4.3-4.7c0-2.8-2-4.8-5.4-4.8h-4.1V94z    M63.8,85.5v-7.1h2.9c2.5,0,4.1,1.3,4.1,3.6s-1.6,3.6-4.1,3.6H63.8z"
   id="path4"
   style="fill:#ffffff" />
	<path
   d="M362.5,67.5l1.1,0.4l2-5.6l-1.2-0.4L362.5,67.5z M351.9,54.2h2.4V61c0,1.8,1,3.2,3.1,3.2c1.1,0,2.2-0.6,2.2-0.6l-0.5-1.1   c0,0-0.8,0.5-1.6,0.5c-1.5,0-1.9-1-1.9-2.3v-6.6h3.7V53h-3.7v-3.5h-1.2V53h-2.4V54.2z M342.6,54.2h2.4V64h1.2v-9.8h2.9V53h-2.9v-4   c0-1.3,0.5-2.3,1.9-2.3c0.7,0,1.4,0.4,1.4,0.4l0.5-1.1c-0.9-0.5-1.4-0.5-2.1-0.5c-1.5,0-3,1.1-3,3.2V53h-2.4V54.2z M333.9,63.1   c-1.4,0-3-0.7-3-2.5s1.8-2.5,3.2-2.5c2.2,0,3.5,0.9,3.5,0.9v1.8C337.6,60.8,336.3,63.1,333.9,63.1 M334.4,52.8   c-2.3,0-4.1,1.2-4.1,1.2l0.6,1.1c0,0,1.6-1,3.6-1c1.2,0,3.2,0.5,3.2,3.1v0.8c0,0-1.4-1-3.6-1c-2.1,0-4.3,1.3-4.3,3.7   c0,2.4,2.1,3.7,4,3.7c2.7,0,4.1-2.2,4.1-2.2V64h1.1v-7.2C338.8,54.6,337.4,52.8,334.4,52.8 M317.6,54.8v-9h-1.2V64h1.2v-7.6   c0,0,1-2.4,3.4-2.4c1.8,0,3.1,1,3.1,3.2V64h1.2v-7c0-3-2.1-4.2-4.1-4.2C318.6,52.8,317.6,54.8,317.6,54.8 M307.7,63.1   c-2.6,0-4.3-2.1-4.3-4.5c0-2.4,1.7-4.5,4.3-4.5c2.3,0,3.5,1.6,3.5,1.6l0.9-0.8c0,0-1.5-2.1-4.4-2.1c-3.3,0-5.6,2.6-5.6,5.8   c0,3.2,2.4,5.8,5.6,5.8c3,0,4.5-2.2,4.5-2.2l-0.9-0.8C311.3,61.2,310.1,63.1,307.7,63.1 M290,61.9c0,0,1.4,2.3,4.7,2.3   c2.1,0,4.2-1.1,4.2-3.1c0-2-1.6-2.7-3.7-3.1c-1.8-0.4-3.3-0.8-3.3-2.1c0-1.1,1.1-1.9,2.6-1.9c2,0,3.1,1.2,3.1,1.2l0.8-0.9   c0,0-1.3-1.5-3.9-1.5c-2.4,0-3.9,1.5-3.9,3.1c0,1.8,1.5,2.7,3.9,3.3c1.7,0.4,3,0.8,3,2c0,1.4-1.7,1.9-2.9,1.9   c-2.6,0-3.7-1.9-3.7-1.9L290,61.9z M279.3,54.2h2.4V61c0,1.8,1,3.2,3.1,3.2c1.1,0,2.2-0.6,2.2-0.6l-0.5-1.1c0,0-0.8,0.5-1.6,0.5   c-1.5,0-1.9-1-1.9-2.3v-6.6h3.7V53h-3.7v-3.5h-1.2V53h-2.4V54.2z M275.3,52.8c-2.3,0-3.2,2.1-3.2,2.1V53H271V64h1.2v-7.9   c0,0,0.9-2.1,2.8-2.1c1,0,1.5,0.3,1.5,0.3L277,53C277,53,276.4,52.8,275.3,52.8 M264.2,49.5c0,0.5,0.4,1,1,1c0.5,0,1-0.4,1-1   s-0.4-1-1-1C264.6,48.5,264.2,49,264.2,49.5 M264.5,64h1.2V53h-1.2V64z M243.4,53l4.9,11.4l3.8-9.1l3.8,9.1l4.9-11.4h-1.3l-3.5,8.6   l-3.5-8.6h-0.7l-3.5,8.6l-3.6-8.6H243.4z M233.4,54.2h2.4V61c0,1.8,1,3.2,3.1,3.2c1.1,0,2.2-0.6,2.2-0.6l-0.5-1.1   c0,0-0.8,0.5-1.6,0.5c-1.5,0-1.9-1-1.9-2.3v-6.6h3.7V53H237v-3.5h-1.2V53h-2.4V54.2z M221.4,61.9c0,0,1.4,2.3,4.7,2.3   c2.1,0,4.2-1.1,4.2-3.1c0-2-1.6-2.7-3.7-3.1c-1.8-0.4-3.3-0.8-3.3-2.1c0-1.1,1.1-1.9,2.6-1.9c2,0,3.1,1.2,3.1,1.2l0.8-0.9   c0,0-1.3-1.5-3.9-1.5c-2.4,0-3.9,1.5-3.9,3.1c0,1.8,1.5,2.7,3.9,3.3c1.7,0.4,3,0.8,3,2c0,1.4-1.7,1.9-2.9,1.9   c-2.6,0-3.7-1.9-3.7-1.9L221.4,61.9z M217.6,52.8c-2.3,0-3.2,2.1-3.2,2.1V53h-1.1V64h1.2v-7.9c0,0,0.9-2.1,2.8-2.1   c1,0,1.5,0.3,1.5,0.3l0.5-1.2C219.3,53,218.6,52.8,217.6,52.8 M203.7,63.1c-2.7,0-4.3-2.1-4.3-4.5c0-2.5,1.5-4.5,4.3-4.5   c2.7,0,4.3,2.1,4.3,4.5C208,61,206.4,63.1,203.7,63.1 M203.7,52.8c-3.3,0-5.6,2.6-5.6,5.8c0,3.2,2.3,5.8,5.6,5.8   c3.3,0,5.6-2.6,5.6-5.8C209.3,55.3,206.9,52.8,203.7,52.8 M187.3,48.4h7.9v-1.2h-9.2V64h1.2v-8h7.5v-1.2h-7.5V48.4z M171.3,60.5   c0,0-1.2,2.5-3.9,2.5c-2.4,0-4.2-2-4.2-4.5c0-2.5,1.7-4.5,4.2-4.5c2.8,0,3.9,2.5,3.9,2.5V60.5z M172.6,64V45.8h-1.2v9   c-0.3-0.4-1.6-2.1-4-2.1c-3,0-5.4,2.4-5.4,5.8c0,3.4,2.4,5.8,5.4,5.8c2.8,0,4.1-2.3,4.1-2.3v2H172.6z M153.8,52.8   c-2.7,0-3.7,2.3-3.7,2.3v-2H149V64h1.2v-7.6c0,0,1-2.4,3.4-2.4c1.8,0,3.1,1,3.1,3.2V64h1.2v-7C157.9,54,155.9,52.8,153.8,52.8    M139.2,64.3c2.7,0,3.7-2.2,3.7-2.2V64h1.1V53h-1.2v7.6c0,0-1,2.4-3.4,2.4c-1.8,0-3.1-1-3.1-3.2V53h-1.2v7   C135.1,63,137.1,64.3,139.2,64.3 M116.9,58.9h6.4v-1.2h-6.4V58.9z M111.2,60.5c0,0-1.2,2.5-3.9,2.5c-2.4,0-4.2-2-4.2-4.5   c0-2.5,1.7-4.5,4.2-4.5c2.8,0,3.9,2.5,3.9,2.5V60.5z M112.5,64V45.8h-1.2v9c-0.3-0.4-1.6-2.1-4-2.1c-3,0-5.4,2.4-5.4,5.8   c0,3.4,2.4,5.8,5.4,5.8c2.8,0,4.1-2.3,4.1-2.3v2H112.5z M93.7,52.8C91.1,52.8,90,55,90,55v-2h-1.1V64h1.2v-7.6c0,0,1-2.4,3.4-2.4   c1.8,0,3.1,1,3.1,3.2V64h1.2v-7C97.8,54,95.8,52.8,93.7,52.8 M79,63.1c-1.4,0-3-0.7-3-2.5s1.8-2.5,3.2-2.5c2.2,0,3.5,0.9,3.5,0.9   v1.8C82.7,60.8,81.4,63.1,79,63.1 M79.5,52.8c-2.3,0-4.1,1.2-4.1,1.2l0.6,1.1c0,0,1.6-1,3.6-1c1.2,0,3.2,0.5,3.2,3.1v0.8   c0,0-1.4-1-3.6-1c-2.1,0-4.3,1.3-4.3,3.7c0,2.4,2.1,3.7,4,3.7c2.7,0,4.1-2.2,4.1-2.2V64h1.1v-7.2C83.9,54.6,82.5,52.8,79.5,52.8    M62.5,64h9.3v-1.2h-8V47.2h-1.2V64z"
   id="path6"
   style="fill:#ffffff" />
	<path
   d="M273.9,22.6c-2.4,0-3.3,2.1-3.3,2.1s-0.7-2.1-3.5-2.1c-2.3,0-3.1,1.9-3.1,1.9v-1.6h-1.9V34h2v-7.7c0,0,0.7-1.8,2.4-1.8   c1.4,0,2.4,0.9,2.4,2.7V34h2v-7.7c0,0,0.7-1.8,2.4-1.8c1.4,0,2.4,0.9,2.4,2.7V34h2v-7.1C277.7,24.1,276.2,22.6,273.9,22.6    M252.4,34.3c2.4,0,3.4-2,3.4-2V34h1.9V22.9h-2v7.7c0,0-0.9,1.8-2.8,1.8c-1.5,0-2.7-0.8-2.7-2.7v-6.8h-2V30   C248.2,32.8,250.2,34.3,252.4,34.3 M241,19.3c0,0.7,0.6,1.4,1.4,1.4c0.7,0,1.4-0.6,1.4-1.4c0-0.7-0.6-1.4-1.4-1.4   C241.6,18,241,18.6,241,19.3 M241.3,34h2V22.9h-2V34z M236.3,22.6c-2.1,0-3.1,2-3.1,2v-1.7h-1.9V34h2v-7.6c0,0,0.8-1.9,2.5-1.9   c0.8,0,1.3,0.2,1.3,0.2l0.7-1.8C237.9,22.9,237.2,22.6,236.3,22.6 M218.7,27.5c0.1-1.2,1.1-3,3.5-3c2.2,0,3.4,1.8,3.4,3H218.7z    M222.2,22.6c-3.3,0-5.5,2.6-5.5,5.8c0,3.3,2.4,5.8,5.8,5.8c2.9,0,4.6-2.2,4.6-2.2l-1.3-1.3c0,0-1.2,1.6-3.3,1.6   c-2.1,0-3.7-1.6-3.8-3.2h9c0-0.3,0-0.4,0-0.6C227.6,24.9,225.3,22.6,222.2,22.6 M206,24.7h2.2v6.1c0,2.4,1.8,3.5,3.3,3.5   c0.6,0,1.3-0.1,2.3-0.7l-0.7-1.7c0,0-0.6,0.5-1.3,0.5c-1.1,0-1.6-0.6-1.6-1.7v-6h3.5v-1.8h-3.5v-3.4h-2v3.4H206V24.7z M193.9,31.9   c0,0,1.6,2.3,4.8,2.3c2.1,0,4.4-1.1,4.4-3.2c0-2.3-1.8-3-3.9-3.5c-1.8-0.4-2.7-0.8-2.7-1.7c0-0.7,0.7-1.4,2.1-1.4   c1.7,0,2.8,1.2,2.8,1.2l1.3-1.4c0,0-1.5-1.7-4.1-1.7c-2.5,0-4.1,1.6-4.1,3.2c0,2.1,1.7,3,4.1,3.5c1.7,0.3,2.5,0.8,2.5,1.8   c0,0.9-1.3,1.4-2.4,1.4c-2.2,0-3.4-1.8-3.4-1.8L193.9,31.9z M187.4,19.3c0,0.7,0.6,1.4,1.4,1.4s1.4-0.6,1.4-1.4   c0-0.7-0.6-1.4-1.4-1.4S187.4,18.6,187.4,19.3 M187.7,34h2V22.9h-2V34z M178.7,22.6c-2.4,0-3.4,1.8-3.4,1.8v-1.6h-1.9V34h2v-7.6   c0,0,1-1.9,2.8-1.9c1.5,0,2.7,0.8,2.7,2.7V34h2v-7.1C182.9,24.1,180.9,22.6,178.7,22.6 M166.1,19.3c0,0.7,0.6,1.4,1.4,1.4   c0.7,0,1.4-0.6,1.4-1.4c0-0.7-0.6-1.4-1.4-1.4C166.8,18,166.1,18.6,166.1,19.3 M166.5,34h2V22.9h-2V34z M157.8,22.6   c-2.4,0-3.3,2.1-3.3,2.1s-0.7-2.1-3.5-2.1c-2.3,0-3.1,1.9-3.1,1.9v-1.6h-1.9V34h2v-7.7c0,0,0.7-1.8,2.4-1.8c1.4,0,2.4,0.9,2.4,2.7   V34h2v-7.7c0,0,0.7-1.8,2.4-1.8c1.4,0,2.4,0.9,2.4,2.7V34h2v-7.1C161.6,24.1,160.1,22.6,157.8,22.6 M133,31.9c0,0,1.6,2.3,4.8,2.3   c2.1,0,4.4-1.1,4.4-3.2c0-2.3-1.8-3-3.9-3.5c-1.8-0.4-2.7-0.8-2.7-1.7c0-0.7,0.7-1.4,2.1-1.4c1.7,0,2.8,1.2,2.8,1.2l1.3-1.4   c0,0-1.5-1.7-4.1-1.7c-2.5,0-4.1,1.6-4.1,3.2c0,2.1,1.7,3,4.1,3.5c1.7,0.3,2.5,0.8,2.5,1.8c0,0.9-1.3,1.4-2.4,1.4   c-2.2,0-3.4-1.8-3.4-1.8L133,31.9z M121.1,27.5c0.1-1.2,1.1-3,3.5-3c2.2,0,3.4,1.8,3.4,3H121.1z M124.6,22.6   c-3.3,0-5.5,2.6-5.5,5.8c0,3.3,2.4,5.8,5.8,5.8c2.9,0,4.6-2.2,4.6-2.2l-1.3-1.3c0,0-1.2,1.6-3.3,1.6c-2.1,0-3.7-1.6-3.8-3.2h9   c0-0.3,0-0.4,0-0.6C130,24.9,127.7,22.6,124.6,22.6 M112.8,30.5c0,0-1.1,1.9-3.3,1.9c-2.3,0-3.7-1.8-3.7-4c0-2.2,1.5-4,3.7-4   s3.3,1.9,3.3,1.9V30.5z M109.3,22.6c-3,0-5.4,2.6-5.4,5.8s2.4,5.8,5.4,5.8c2.7,0,3.7-1.9,3.7-1.9V34h1.8V15.8h-2v8.4   C112.8,24.3,111.7,22.6,109.3,22.6 M96,22.6c-2.4,0-3.4,1.8-3.4,1.8v-1.6h-1.9V34h2v-7.6c0,0,1-1.9,2.8-1.9c1.5,0,2.7,0.8,2.7,2.7   V34h2v-7.1C100.1,24.1,98.2,22.6,96,22.6 M80.9,34.3c2.4,0,3.4-2,3.4-2V34h1.9V22.9h-2v7.7c0,0-0.9,1.8-2.8,1.8   c-1.5,0-2.7-0.8-2.7-2.7v-6.8h-2V30C76.7,32.8,78.7,34.3,80.9,34.3 M64.2,24.4v-5.3H67c1.9,0,3,1,3,2.7c0,1.6-1.2,2.7-3,2.7H64.2z    M67.5,32.1h-3.2v-5.8h3.2c2.4,0,3.5,1.3,3.5,2.9S69.9,32.1,67.5,32.1 M62.2,34h5.3c3.3,0,5.5-1.9,5.5-4.8c0-3.3-2.6-4.1-2.8-4.1   c0.2,0,1.9-1,1.9-3.3c0-2.8-1.9-4.6-5.4-4.6h-4.4V34z"
   id="path8"
   style="fill:#ffffff" />
</g>
<polygon
   class="st0"
   points="43.2,22.7 43.2,17 17,17 19.7,22.7 "
   id="polygon12" />
<polygon
   class="st0"
   points="24.9,34 43.2,34 43.2,28.3 22.3,28.3 "
   id="polygon14" />
<path
   style="fill:#ffffff;fill-opacity:1"
   d="m 22.361695,28.260792 -0.02744,-0.02744 m -2.634011,-5.542405 23.486639,0.05487 -0.02744,5.542413 -20.797748,-0.02744"
   id="path2020" /></svg>
